<svg width="900" height="42" viewBox="0 0 900 42" xmlns="http://www.w3.org/2000/svg" role="img" aria-label="Decorative divider">
  <rect width="900" height="42" fill="none"/>
  <g fill="none" stroke="#C9A15D" stroke-width="1.2" opacity="0.95">
    <path d="M0 21H350"/>
    <path d="M550 21H900"/>
    <path d="M394.5 21c13-13 24-13 37 0 13 13 24 13 37 0 13-13 24-13 37 0"/>
    <path d="M405 21c-8-10-14-10-22 0 8 10 14 10 22 0Z"/>
    <path d="M495 21c8-10 14-10 22 0-8 10-14 10-22 0Z"/>
    <path d="M435 21c7-7 14-7 20 0-6 7-13 7-20 0Z" fill="#C9A15D" opacity="0.9"/>
    <path d="M465 21c-7-7-14-7-20 0 6 7 13 7 20 0Z" fill="#C9A15D" opacity="0.9"/>
    <path d="M450 8l5 13-5 13-5-13Z" fill="#C9A15D" opacity="0.95"/>
  </g>
  <g fill="#C9A15D">
    <circle cx="0" cy="21" r="1.8"/><circle cx="900" cy="21" r="1.8"/>
    <circle cx="350" cy="21" r="1.4"/><circle cx="550" cy="21" r="1.4"/>
  </g>
</svg>
